<svg width="17" height="9" viewBox="0 0 17 9" fill="none" xmlns="http://www.w3.org/2000/svg">
<path fill-rule="evenodd" clip-rule="evenodd" d="M8.19001 0C3.76364 0 0 4.40182 0 4.40182V4.56547C0 4.56547 3.74731 9 8.17368 9C12.6 9 16.3636 4.59818 16.3636 4.59818V4.43453C16.3636 4.43453 12.6164 0 8.19001 0ZM8.1573 7.25727C6.66003 7.25727 5.44912 6.04637 5.44912 4.55728C5.44912 3.06819 6.66003 1.86548 8.1573 1.86548C9.66275 1.86548 10.8737 3.06819 10.8737 4.55728C10.8737 6.04637 9.66275 7.25727 8.1573 7.25727ZM8.1573 3.30544C7.47821 3.30544 6.92184 3.86181 6.92184 4.5409C6.92184 4.86965 7.05242 5.18495 7.28488 5.41741C7.51734 5.64987 7.83265 5.78046 8.16139 5.78046C8.49014 5.78046 8.80539 5.64987 9.03785 5.41741C9.27031 5.18495 9.40095 4.86965 9.40095 4.5409C9.40095 3.86181 8.84457 3.30544 8.1573 3.30544Z" fill="#00C030"/>
</svg>
