<svg width="35" height="30" viewBox="0 0 35 30" fill="none" xmlns="http://www.w3.org/2000/svg">
<path d="M21.232 27.268C19.2191 28.3562 16.9662 28.9244 14.678 28.921C6.98501 28.921 0.75 22.616 0.75 14.836C0.75 7.056 6.98501 0.75 14.678 0.75C22.371 0.75 28.605 7.055 28.605 14.836L28.601 15.25" stroke="#91A3AC" stroke-width="1.5" stroke-linecap="round" stroke-linejoin="round"/>
<path d="M7.94299 13.27L14.78 15.043L21.437 8.65503" stroke="#91A3AC" stroke-width="1.5" stroke-linecap="round" stroke-linejoin="round"/>
<path fill-rule="evenodd" clip-rule="evenodd" d="M27.786 19.807H29.016V22.707H31.883V23.95H29.015V26.85H27.786V23.95H24.919V22.707H27.786V19.807ZM22.051 23.329C22.051 26.875 24.894 29.75 28.401 29.75C31.908 29.75 34.75 26.875 34.75 23.329C34.75 19.783 31.907 16.907 28.4 16.907C24.893 16.907 22.051 19.782 22.051 23.329Z" fill="#BBCCDD"/>
</svg>
