<svg width="43" height="26" viewBox="0 0 43 26" fill="none" xmlns="http://www.w3.org/2000/svg">
<path fill-rule="evenodd" clip-rule="evenodd" d="M21.1881 0.5C13.6921 0.5 7.85311 5.19002 0.68811 12.796C6.85811 19.298 12.0401 25.1 21.1881 25.1C30.3361 25.1 37.0581 17.757 41.6881 12.931C36.9501 7.28503 30.2251 0.5 21.1881 0.5ZM21.1881 21.205C16.5041 21.205 12.6981 17.433 12.6981 12.8C12.6981 8.16699 16.5041 4.39502 21.1881 4.39502C25.8681 4.39502 29.6781 8.16699 29.6781 12.8C29.6781 17.433 25.8681 21.205 21.1881 21.205ZM21.1881 8.065C18.5501 8.065 16.4051 10.188 16.4051 12.8C16.4051 15.412 18.5501 17.536 21.1881 17.536C23.8261 17.536 25.9711 15.412 25.9711 12.8C25.9711 10.188 23.8261 8.065 21.1881 8.065Z" fill="#00C030" stroke="#00C030"/>
</svg>
